<?xml version="1.0" encoding="windows-1252"?>
<!-- Generator: Adobe Illustrator 19.0.0, SVG Export Plug-In . SVG Version: 6.00 Build 0)  -->
<svg version="1.1" id="Layer_1" xmlns="http://www.w3.org/2000/svg" xmlns:xlink="http://www.w3.org/1999/xlink" x="0px" y="0px" viewBox="0 0 511.981 511.981" style="enable-background:new 0 0 511.981 511.981;" xml:space="preserve">
<path style="fill:#965353;" d="M377.799,104.535c-0.219-0.266-0.453-0.523-0.703-0.773l-45.248-45.249c-2-2-4.719-3.125-7.547-3.125  l0,0c-2.828,0-5.547,1.125-7.547,3.132L251.6,123.807c-16.218,15.953-23.609,31.25-30.749,46.046  c-8.188,16.953-15.921,32.96-37.108,51.865c-42.577,37.991-85.685,81.287-118.293,118.77C25.217,386.736,3.234,421.187,0.109,442.89  c-0.578,4.016,1.172,8,4.516,10.312l50.279,34.561c1.797,1.234,3.906,1.875,6.031,1.875c0.984,0,1.984-0.141,2.953-0.422  c3.062-0.875,5.578-3.078,6.844-6c17.812-41.107,36.827-74.185,59.857-104.121c23.64-30.718,49.936-55.623,72.545-75.935  c57.81-51.944,102.246-99.528,129.339-130.3c15.375-17.453,26.92-31.483,33.92-40.179c3.969-4.945,6.938-8.742,8.719-11.054  c0.984-1.281,1.734-2.258,2.234-2.922l0.562-0.758C381.502,113.152,380.439,107.754,377.799,104.535z"/>
<path style="opacity:0.1;fill:#FFFFFF;enable-background:new    ;" d="M362.017,88.676c0.25,0.25,0.484,0.508,0.703,0.773  c2.641,3.218,3.703,8.617,0.109,13.414l-0.578,0.758c-0.5,0.664-1.234,1.641-2.234,2.922c-1.781,2.312-4.734,6.109-8.717,11.054  c-6.984,8.695-18.547,22.726-33.906,40.178c-27.092,30.773-71.529,78.357-129.339,130.292  c-22.609,20.312-48.905,45.233-72.545,75.95c-23.03,29.937-42.06,63.014-59.872,104.107c-1.266,2.938-3.766,5.141-6.844,6.016  c-0.969,0.281-1.953,0.422-2.938,0.422c-2.141,0-4.25-0.641-6.046-1.891L0.046,445.328c0.266,3.141,1.922,6.047,4.578,7.875  l50.279,34.561c1.797,1.234,3.906,1.875,6.031,1.875c0.984,0,1.984-0.141,2.953-0.422c3.062-0.875,5.578-3.078,6.844-6  c17.812-41.107,36.827-74.185,59.857-104.121c23.64-30.718,49.936-55.623,72.545-75.935c57.81-51.944,102.246-99.528,129.339-130.3  c15.375-17.453,26.92-31.483,33.92-40.179c3.969-4.945,6.938-8.742,8.719-11.054c0.984-1.281,1.734-2.258,2.234-2.922l0.562-0.758  c3.594-4.796,2.531-10.194-0.109-13.413c-0.219-0.266-0.453-0.523-0.703-0.773l-45.248-45.249v-0.008L362.017,88.676z"/>
<path style="fill:#CCD1D9;" d="M509.045,199.414c3.984-4.188,3.906-10.796-0.188-14.89L349.801,25.467  c-4.156-4.164-10.922-4.164-15.078,0l-45.248,45.257c-2.016,2-3.125,4.711-3.125,7.539s1.109,5.546,3.125,7.546l67.871,67.88  c1.406,1.406,2.984,2.344,4.922,2.796c1.859,0.484,7.469,2.516,11.031,6.078c2.266,2.266,3.219,4.57,3.125,7.477  c-0.156,5.008-3.734,16.304-25.826,35.678c-2.844,2.5-4.156,6.336-3.438,10.062l14.795,75.708c0.422,2.109,1.453,4.016,2.938,5.5  c0.719,0.719,1.562,1.344,2.484,1.844c2.812,1.516,6.156,1.688,9.109,0.484C437.375,274.303,506.154,202.461,509.045,199.414z"/>
<g>
	<path style="fill:#E6E9ED;" d="M417.687,93.347L349.8,25.466c-4.156-4.164-10.922-4.164-15.078,0l-45.248,45.257   c-2.016,2-3.125,4.711-3.125,7.539s1.109,5.539,3.109,7.539l67.887,67.888l0,0l0,0L417.687,93.347z"/>
	<path style="fill:#E6E9ED;" d="M508.857,184.524l-19.25-19.257c-18.264,20.109-62.936,65.248-131.121,108.442l3.469,17.78   c0.422,2.109,1.453,4.016,2.938,5.5c0.719,0.719,1.562,1.344,2.484,1.844c2.812,1.516,6.156,1.688,9.109,0.484   c60.889-25.015,129.668-96.856,132.559-99.903C513.029,195.227,512.951,188.618,508.857,184.524z"/>
</g>
<g>
</g>
<g>
</g>
<g>
</g>
<g>
</g>
<g>
</g>
<g>
</g>
<g>
</g>
<g>
</g>
<g>
</g>
<g>
</g>
<g>
</g>
<g>
</g>
<g>
</g>
<g>
</g>
<g>
</g>
</svg>